<svg xmlns="http://www.w3.org/2000/svg" xmlns:xlink="http://www.w3.org/1999/xlink" version="1.1" width="256" height="256" viewBox="0 0 256 256" xml:space="preserve">

<defs>
</defs>
<g style="stroke: none; stroke-width: 0; stroke-dasharray: none; stroke-linecap: butt; stroke-linejoin: miter; stroke-miterlimit: 10; fill: none; fill-rule: nonzero; opacity: 1;" transform="translate(1.4065934065934016 1.4065934065934016) scale(2.81 2.81)" >
	<path d="M 77.973 63.445 L 46.339 0.815 c -0.023 -0.045 -0.06 -0.076 -0.087 -0.117 c -0.047 -0.073 -0.094 -0.142 -0.153 -0.207 c -0.057 -0.062 -0.118 -0.115 -0.183 -0.166 c -0.062 -0.049 -0.124 -0.094 -0.194 -0.133 c -0.079 -0.044 -0.161 -0.076 -0.247 -0.105 c -0.044 -0.015 -0.081 -0.043 -0.128 -0.054 c -0.03 -0.007 -0.06 -0.001 -0.091 -0.006 c -0.085 -0.015 -0.168 -0.017 -0.256 -0.017 c -0.088 0 -0.173 0.002 -0.258 0.017 c -0.03 0.005 -0.06 -0.001 -0.09 0.006 c -0.046 0.011 -0.083 0.039 -0.127 0.054 c -0.086 0.029 -0.168 0.061 -0.248 0.106 c -0.07 0.039 -0.132 0.084 -0.194 0.133 c -0.066 0.052 -0.127 0.104 -0.184 0.167 c -0.058 0.064 -0.106 0.133 -0.152 0.206 c -0.026 0.042 -0.064 0.073 -0.087 0.117 l -31.634 62.63 c -0.288 0.57 -0.184 1.261 0.261 1.72 c 0.289 0.299 0.681 0.457 1.079 0.457 c 0.213 0 0.428 -0.046 0.63 -0.14 L 45 51.104 l 31.003 14.378 c 0.202 0.094 0.417 0.14 0.631 0.14 c 0.398 0 0.789 -0.158 1.078 -0.457 C 78.157 64.706 78.261 64.015 77.973 63.445 z M 43.5 7.79 v 40.703 L 16.652 60.945 L 43.5 7.79 z" style="stroke: none; stroke-width: 1; stroke-dasharray: none; stroke-linecap: butt; stroke-linejoin: miter; stroke-miterlimit: 10; fill: rgb(255,255,255); fill-rule: nonzero; opacity: 1;" transform=" matrix(1 0 0 1 0 0) " stroke-linecap="round" />
	<path d="M 54.163 90.009 c -0.432 0 -0.853 -0.187 -1.144 -0.529 L 37.338 71.02 v 17.489 c 0 0.828 -0.672 1.5 -1.5 1.5 s -1.5 -0.672 -1.5 -1.5 V 66.936 c 0 -0.629 0.393 -1.192 0.983 -1.408 c 0.591 -0.215 1.254 -0.042 1.66 0.438 l 15.682 18.46 V 66.936 c 0 -0.828 0.672 -1.5 1.5 -1.5 s 1.5 0.672 1.5 1.5 v 21.573 c 0 0.629 -0.393 1.192 -0.983 1.408 C 54.512 89.979 54.337 90.009 54.163 90.009 z" style="stroke: none; stroke-width: 1; stroke-dasharray: none; stroke-linecap: butt; stroke-linejoin: miter; stroke-miterlimit: 10; fill: rgb(255,255,255); fill-rule: nonzero; opacity: 1;" transform=" matrix(1 0 0 1 0 0) " stroke-linecap="round" />
</g>
</svg>
